<?xml version="1.0" encoding="utf-8"?>
<!-- Generator: Adobe Illustrator 21.0.0, SVG Export Plug-In . SVG Version: 6.00 Build 0)  -->
<svg version="1.1" id="Layer_1" xmlns="http://www.w3.org/2000/svg" xmlns:xlink="http://www.w3.org/1999/xlink" x="0px" y="0px"
	 viewBox="0 0 988 988" style="enable-background:new 0 0 988 988;" xml:space="preserve">
<style type="text/css">
	.st0{fill:none;}
	.st1{fill:#C1C1C1;}
</style>
<path class="st0" d="M-546.6,491.2h5.6v5.6h-5.6V491.2z"/>
<g>
	<path class="st1" d="M144.5-966.5c-7.8-8.6-19.4-12.9-32.3-11.6L29-969.9c-9.9,0.9-22.4,6.5-28.5,12.5l-137.2,137.1
		c-10.8,10.8-12.1,27.6-2.6,37.1l98.3,98.3c3.9,3.9,9.9,6.5,15.9,6.5c7.3,0,14.7-3,19.8-8.6L132-824.2c6.5-6.5,12.1-18.1,12.9-26.3
		l8.6-85.8C154.9-948.4,151.9-958.8,144.5-966.5z M-12.5-695.2c-3.5,3.5-7.8,5.2-12.1,5.2c-2.2,0-5.6-0.4-8.2-3l-98.3-98.4
		c-5.2-5.2-3.9-14.7,2.6-21.1l22.4-22.4L10.3-718.4L-12.5-695.2z M142.8-938.1l-8.6,85.8c-0.4,6-5.2,15.1-9.5,19.4L18.6-726.8
		L-97.9-843.2L8.7-949.3c4.3-4.3,14.7-8.6,21.6-9.5l83.2-8.2c1.3,0,2.2,0,3.5,0c7.8,0,14.7,3,19.4,8.2
		C141.5-953.6,143.7-946.3,142.8-938.1z"/>
	<path class="st1" d="M90.6-942.8c-15.5,0-28,12.5-28,28s12.5,28,28,28s28-12.5,28-28S106.1-942.8,90.6-942.8z M90.6-897.9
		c-9.5,0-16.8-7.8-16.8-16.8s7.8-16.8,16.8-16.8c9.5,0,16.8,7.8,16.8,16.8S99.7-897.9,90.6-897.9z"/>
</g>
<g>
	<path class="st1" d="M-357.1-1138c-15.5-17.3-38.8-25.9-64.7-23.3l-166.4,16.5c-19.9,1.7-44.9,12.9-56.9,25l-274.4,274.3
		c-21.5,21.5-24.1,55.2-5.2,74.2L-728-574.6c7.7,7.7,19.8,12.9,31.9,12.9c14.7,0,29.3-6.1,39.7-17.3l274.2-274.3
		c12.9-12.9,24.1-36.2,25.9-52.6l17.3-171.7C-336.4-1101.7-342.4-1122.4-357.1-1138z M-671.1-595.4c-6.9,6.9-15.5,10.4-24.2,10.4
		c-4.3,0-11.2-0.9-16.4-6.1l-196.7-196.6c-10.3-10.3-7.7-29.3,5.2-42.3l44.9-44.9L-625.4-642L-671.1-595.4z M-360.6-1081
		l-17.2,171.6c-0.9,12.1-10.3,30.2-19,38.8L-609-658.3l-233-232.9l213.2-212.2c8.6-8.6,29.3-17.3,43.1-19l166.5-16.4
		c2.6,0,4.3,0,6.9,0c15.5,0,29.3,6.1,38.8,16.4C-363.2-1112.1-358.8-1097.4-360.6-1081z"/>
	<path class="st1" d="M-465-1090.5c-31.1,0-56.1,25-56.1,56.1s25,56.1,56.1,56.1s56.1-25,56.1-56.1
		C-408.9-1065.5-433.9-1090.5-465-1090.5z M-465-1000.8c-19,0-33.7-15.5-33.7-33.7c0-18.2,15.5-33.7,33.7-33.7
		c19,0,33.7,15.5,33.7,33.7C-431.3-1016.3-446.8-1000.8-465-1000.8z"/>
</g>
<g>
	<path class="st1" d="M915.2,79.6c-23.3-25.9-58.2-38.8-97-34.9L568.5,69.3c-29.8,2.6-67.3,19.4-85.4,37.5L71.6,518.3
		c-32.3,32.3-36.2,82.8-7.8,111.3l295,295c11.6,11.6,29.7,19.4,47.8,19.4c22,0,44-9.1,59.5-25.9l411.5-411.5
		c19.4-19.4,36.2-54.3,38.8-78.9l25.9-257.5C946.2,134,937.2,102.9,915.2,79.6z M444.2,893.5c-10.4,10.4-23.3,15.6-36.3,15.6
		c-6.5,0-16.8-1.3-24.6-9.1l-295-295c-15.5-15.5-11.6-44,7.8-63.4l67.3-67.3l349.3,349.4L444.2,893.5z M910,165l-25.9,257.5
		c-1.3,18.1-15.5,45.3-28.5,58.2L537.3,799.1L187.9,449.7l319.7-318.3c12.9-12.9,44-25.9,64.7-28.5L822,78.3c3.9,0,6.5,0,10.4,0
		c23.3,0,44,9.1,58.2,24.6C906.1,118.4,912.6,140.4,910,165z"/>
	<path class="st1" d="M753.4,150.8c-46.6,0-84.1,37.5-84.1,84.1s37.5,84.1,84.1,84.1s84.1-37.5,84.1-84.1S800,150.8,753.4,150.8z
		 M753.4,285.4c-28.5,0-50.5-23.3-50.5-50.5s23.3-50.5,50.5-50.5c28.5,0,50.5,23.3,50.5,50.5S780.6,285.4,753.4,285.4z"/>
</g>
</svg>
